{"title":"Remo Williams -The Adventure Begins (1985)_DVDRip_SWESUB","uid":6985557,"size":1919949096,"categoryP":"video","categoryS":"movies","magnet":"?xt=urn:btih:08a59dc818e42cb6b3208f0183cbe37dd3035583&amp;dn=Remo+Williams+-The+Adventure+Begins+%281985%29_DVDRip_SWESUB&amp;tr=udp%3A%2F%2Ftracker.openbittorrent.com%3A80&amp;tr=udp%3A%2F%2Fopen.demonii.com%3A1337&amp;tr=udp%3A%2F%2Ftracker.coppersurfer.tk%3A6969&amp;tr=udp%3A%2F%2Fexodus.desync.com%3A6969","seeders":2,"leechers":0,"uploader":"kimman59","files":-1,"time":1327557978,"description":"General\n\nHittade ingen undertext pÃƒÂ¥ nÃƒÂ¤tet, fick gÃƒÂ¶ra egen.\nhoppas den duger.LÃƒÂ¤gger den som .srt \nfÃƒÂ¶r den som har lust att fÃƒÂ¶rbÃƒÂ¤ttra den.\n\n\n\n\n\nComplete name                    : Remo Williams - The Adventure Begins (1985).avi\nFormat                           : AVI\nFormat/Info                      : Audio Video Interleave\nFormat profile                   : OpenDML\nFile size                        : 1.79 GiB\nDuration                         : 1h 56mn\nOverall bit rate                 : 2 205 Kbps\nWriting application              : Lavf52.32.0\n\nVideo\nID                               : 0\nFormat                           : MPEG-4 Visual\nFormat profile                   : Simple@L3\nFormat settings, BVOP            : No\nFormat settings, QPel            : No\nFormat settings, GMC             : No warppoints\nFormat settings, Matrix          : Default (H.263)\nCodec ID                         : DIVX\nCodec ID/Info                    : Project Mayo\nCodec ID/Hint                    : DivX 4\nDuration                         : 1h 56mn\nBit rate                         : 2 000 Kbps\nWidth                            : 720 pixels\nHeight                           : 480 pixels\nDisplay aspect ratio             : 16:9\nFrame rate                       : 25.000 fps\nColor space                      : YUV\nChroma subsampling               : 4:2:0\nBit depth                        : 8 bits\nScan type                        : Progressive\nCompression mode                 : Lossy\nBits/(Pixel*Frame)               : 0.231\nStream size                      : 1.62 GiB (91%)\nWriting library                  : XviD 1.1.2 (UTC 2006-11-01)\n\nAudio\nID                               : 1\nFormat                           : MPEG Audio\nFormat version                   : Version 1\nFormat profile                   : Layer 3\nMode                             : Joint stereo\nMode extension                   : MS Stereo\nCodec ID                         : 55\nCodec ID/Hint                    : MP3\nDuration                         : 51mn 13s\nBit rate mode                    : Constant\nBit rate                         : 192 Kbps\nChannel(s)                       : 2 channels\nSampling rate                    : 44.1 KHz\nCompression mode                 : Lossy\nStream size                      : 70.3 MiB (4%)\nAlignment                        : Aligned on interleaves\nInterleave, duration             : 59 ms (1.48 video frame)\nWriting library                  : LAME3.98\n\nSubtitle                         : Swedish","torrent":{"xt":"urn:btih:08a59dc818e42cb6b3208f0183cbe37dd3035583","amp;dn":"Remo+Williams+-The+Adventure+Begins+%281985%29_DVDRip_SWESUB","amp;tr":["udp%3A%2F%2Ftracker.openbittorrent.com%3A80","udp%3A%2F%2Fopen.demonii.com%3A1337","udp%3A%2F%2Ftracker.coppersurfer.tk%3A6969","udp%3A%2F%2Fexodus.desync.com%3A6969"],"infoHash":"08a59dc818e42cb6b3208f0183cbe37dd3035583","infoHashBuffer":{"type":"Buffer","data":[8,165,157,200,24,228,44,182,179,32,143,1,131,203,227,125,211,3,85,131]},"announce":[],"urlList":[]}}